// ------------------------------
//  Sonatina Symphonic Orchestra
// ------------------------------
//      1st-violins Sustain
// ------------------------------

<group>
ampeg_attack=0.180
ampeg_vel2attack=-0.180
ampeg_release=0.9

<region>
sample=samples/1st-violins/1st-violins-sus-g3.mp3
lokey=g3
hikey=g#3
pitch_keycenter=g3

<region>
sample=samples/1st-violins/1st-violins-sus-a#3.mp3
lokey=a3
hikey=b3
pitch_keycenter=a#3
tune=10

<region>
sample=samples/1st-violins/1st-violins-sus-c#4.mp3
lokey=c4
hikey=d4
pitch_keycenter=c#4

<region>
sample=samples/1st-violins/1st-violins-sus-e4.mp3
lokey=d#4
hikey=f4
pitch_keycenter=e4

<region>
sample=samples/1st-violins/1st-violins-sus-g4.mp3
lokey=f#4
hikey=g#4
pitch_keycenter=g4

<region>
sample=samples/1st-violins/1st-violins-sus-a#4.mp3
lokey=a4
hikey=b4
pitch_keycenter=a#4

<region>
sample=samples/1st-violins/1st-violins-sus-c#5.mp3
lokey=c5
hikey=d5
pitch_keycenter=c#5

<region>
sample=samples/1st-violins/1st-violins-sus-e5.mp3
lokey=d#5
hikey=f5
pitch_keycenter=e5

<region>
sample=samples/1st-violins/1st-violins-sus-g5.mp3
lokey=f#5
hikey=g#5
pitch_keycenter=g5

<region>
sample=samples/1st-violins/1st-violins-sus-a#5.mp3
lokey=a5
hikey=b5
pitch_keycenter=a#5

<region>
sample=samples/1st-violins/1st-violins-sus-c#6.mp3
lokey=c6
hikey=d6
pitch_keycenter=c#6

<region>
sample=samples/1st-violins/1st-violins-sus-e6.mp3
lokey=d#6
hikey=f6
pitch_keycenter=e6

<region>
sample=samples/1st-violins/1st-violins-sus-g6.mp3
lokey=f#6
hikey=g#6
pitch_keycenter=g6

<region>
sample=samples/1st-violins/1st-violins-sus-a#6.mp3
lokey=a6
hikey=c7
pitch_keycenter=a#6
